<?xml version="1.0" encoding="UTF-8"?>
<svg id="Layer_2" fill="currentColor" data-name="Layer 2" xmlns="http://www.w3.org/2000/svg" viewBox="0 0 287.95 221.8">
  <defs>
    <style>
      .cls-1 {
        stroke-width: 0px;
      }
    </style>
  </defs>
  <g id="_3" data-name="3">
    <g id="_3._logo" data-name="3. logo">
      <g>
        <polygon class="cls-1" points="165.57 124.67 136.11 115.62 29.9 221.8 155.01 158.08 165.57 124.67"/>
        <polyline class="cls-1" points="70.42 116.73 82.96 107.52 92.57 103.63 100.56 104.65 132.87 114.64 28.68 218.8"/>
        <polygon class="cls-1" points="0 0 108.02 92.62 101.84 101.83 92.16 100.56 81.75 104.77 0 0"/>
        <polygon class="cls-1" points="126.97 69.58 104.78 102.86 135.37 112.26 126.97 69.58"/>
        <polygon class="cls-1" points="166.53 121.83 138.63 113.29 129.8 68.42 166.53 121.83"/>
        <polygon class="cls-1" points="176.8 169.09 159.19 154.53 168.64 124.93 175.63 135.01 176.8 169.09"/>
        <polygon class="cls-1" points="244.51 84.9 249.28 99.93 179.8 169.09 178.51 130.61 244.51 84.9"/>
        <polygon class="cls-1" points="247.37 84.16 261.55 88.55 287.95 136.76 254.42 101.86 252.1 98.8 247.37 84.16"/>
        <polygon class="cls-1" points="175.24 129.2 193.27 116.72 190.16 103.89 141.75 70.99 134.39 65.95 132.36 66.87 175.24 129.2"/>
        <g>
          <polygon class="cls-1" points="230.63 16.94 140.7 66.63 164.61 82.93 230.63 16.94"/>
          <polygon class="cls-1" points="190.21 100.33 167.19 84.63 232.97 18.85 209.61 84.46 190.21 100.33"/>
        </g>
      </g>
    </g>
  </g>
</svg>