<?xml version="1.0" standalone="no"?>
<!DOCTYPE svg PUBLIC "-//W3C//DTD SVG 20010904//EN"
 "http://www.w3.org/TR/2001/REC-SVG-20010904/DTD/svg10.dtd">
<svg version="1.0" xmlns="http://www.w3.org/2000/svg"
 width="500.000000pt" height="500.000000pt" viewBox="0 0 500.000000 500.000000"
 preserveAspectRatio="xMidYMid meet">
<metadata>
Created by potrace 1.14, written by Peter Selinger 2001-2017
</metadata>
<g transform="translate(0.000000,500.000000) scale(0.100000,-0.100000)"
fill="#000000" stroke="none">
<path d="M0 2500 l0 -2500 2500 0 2500 0 0 2500 0 2500 -2500 0 -2500 0 0
-2500z m2435 1884 c33 -8 87 -30 120 -48 59 -32 60 -33 63 -81 2 -27 -6 -94
-18 -150 -11 -56 -21 -126 -23 -156 l-2 -54 195 0 c107 0 308 6 445 14 343 19
549 1 718 -63 71 -27 115 -51 135 -75 16 -19 15 -61 -2 -83 -11 -15 -6 -32 40
-124 29 -58 62 -130 74 -160 48 -129 9 -247 -107 -332 -46 -33 -303 -162 -324
-162 -5 0 -52 34 -104 76 -75 60 -100 87 -118 126 -16 36 -26 48 -39 44 -15
-3 -18 3 -18 34 0 47 35 114 123 239 71 100 91 145 85 201 -2 29 -10 39 -48
60 -44 24 -51 25 -278 28 -347 5 -904 -36 -1412 -104 -151 -20 -471 -72 -476
-78 -7 -7 -94 -258 -139 -401 -31 -99 -71 -224 -90 -278 -19 -54 -35 -106 -35
-116 0 -10 16 -40 35 -67 48 -67 53 -104 24 -166 -22 -47 -25 -49 -53 -44 -87
18 -234 151 -331 299 -53 82 -99 167 -93 171 2 1 21 8 44 14 50 15 106 68 139
131 13 27 42 100 64 162 21 63 48 135 60 162 l20 47 -59 66 c-63 69 -76 110
-47 146 36 48 688 149 1212 189 83 6 151 12 153 14 2 2 -1 38 -7 80 -6 42 -11
96 -11 120 0 40 -4 47 -45 78 -25 19 -81 49 -124 67 -44 17 -97 46 -118 65
-43 37 -40 47 25 87 77 48 209 56 347 22z m-701 -1168 l71 -36 151 0 c151 0
301 13 614 51 210 26 436 28 540 5 41 -9 103 -30 138 -46 71 -33 181 -129 160
-141 -27 -15 -190 -39 -393 -59 -115 -11 -248 -26 -295 -33 l-85 -12 -19 -65
c-14 -51 -19 -110 -23 -278 -3 -126 -1 -218 4 -223 17 -17 214 7 281 34 l62
25 123 -43 c68 -24 146 -54 173 -66 45 -22 124 -89 124 -107 0 -16 -85 -62
-134 -72 -62 -12 -305 -29 -441 -30 -55 -1 -118 -4 -140 -8 l-40 -7 -7 -190
c-4 -105 -13 -239 -20 -298 -8 -60 -11 -110 -6 -113 20 -13 544 0 578 14 8 3
42 15 75 26 l60 21 211 -61 c290 -83 424 -151 454 -230 12 -32 5 -61 -23 -92
-17 -18 -31 -22 -76 -22 -31 0 -81 7 -111 15 -173 46 -540 69 -980 62 -622
-12 -1069 -70 -1258 -166 -80 -41 -124 -41 -185 0 -60 40 -164 153 -229 249
l-50 75 33 13 c42 17 120 11 172 -14 36 -17 37 -17 62 6 23 21 30 22 102 17
78 -6 306 10 553 38 74 8 189 15 254 15 l119 0 -7 63 c-3 34 -9 143 -12 242
-2 99 -7 208 -10 243 l-6 62 -68 0 c-46 0 -118 -13 -226 -40 l-158 -40 -70 55
c-90 69 -220 200 -212 213 17 27 107 44 296 53 215 10 411 27 420 35 11 12 11
315 0 422 -12 111 -13 114 -44 134 -28 17 -42 19 -136 14 -58 -3 -123 -10
-145 -16 -22 -5 -71 -10 -109 -11 l-68 -1 -53 52 c-56 56 -93 121 -131 234
-13 38 -24 72 -24 74 0 15 103 -11 164 -42z m1371 -1191 c144 -39 319 -150
400 -256 l46 -58 -17 -33 c-81 -161 -228 -136 -428 72 -87 91 -216 265 -216
291 0 16 132 6 215 -16z"/>
</g>
</svg>
