<?xml version="1.0" standalone="no"?>
<!DOCTYPE svg PUBLIC "-//W3C//DTD SVG 20010904//EN"
 "http://www.w3.org/TR/2001/REC-SVG-20010904/DTD/svg10.dtd">
<svg version="1.0" xmlns="http://www.w3.org/2000/svg"
 width="700.000000pt" height="700.000000pt" viewBox="0 0 700.000000 700.000000"
 preserveAspectRatio="xMidYMid meet">
<metadata>
Created by potrace 1.14, written by Peter Selinger 2001-2017
</metadata>
<g transform="translate(0.000000,700.000000) scale(0.100000,-0.100000)"
fill="#000000" stroke="none">
<path d="M168 6116 c12 -15 19 -33 15 -39 -3 -5 -2 -7 4 -4 11 7 106 -109 106
-130 0 -6 5 -11 11 -10 6 1 10 -4 9 -10 -2 -7 1 -13 6 -13 15 0 81 -92 74
-104 -3 -6 -3 -8 2 -4 13 12 80 -73 67 -87 -4 -5 -2 -5 5 -1 15 8 43 -31 36
-53 -4 -12 -3 -13 5 -3 7 10 13 7 25 -12 10 -14 17 -28 17 -30 0 -3 14 -19 31
-37 26 -26 28 -33 17 -47 -11 -15 -11 -15 4 -4 11 9 18 10 23 2 3 -5 4 -10 2
-10 -2 0 14 -19 35 -42 21 -23 36 -48 33 -56 -2 -7 -1 -11 4 -7 13 8 74 -72
65 -86 -4 -7 -3 -9 3 -6 9 6 16 -1 53 -48 13 -17 13 -18 0 -11 -8 5 -2 -3 14
-16 19 -16 26 -29 21 -38 -5 -8 -4 -11 2 -7 16 10 98 -94 85 -107 -4 -4 -2 -6
4 -4 12 3 32 -19 117 -131 31 -41 54 -78 50 -84 -3 -6 -1 -7 4 -4 6 4 21 -8
34 -25 13 -17 43 -56 66 -86 23 -30 40 -59 36 -65 -3 -6 -1 -7 5 -3 12 7 44
-33 36 -45 -2 -4 1 -11 7 -15 8 -5 9 -3 4 6 -6 9 -4 11 4 6 7 -5 10 -15 7 -23
-3 -8 -2 -12 3 -9 9 6 57 -54 53 -66 -1 -5 2 -8 7 -8 5 0 28 -26 52 -57 24
-32 46 -60 49 -63 22 -20 49 -64 44 -71 -3 -5 -1 -8 4 -7 13 4 73 -72 66 -83
-3 -5 -2 -8 3 -7 4 2 10 -1 12 -7 3 -5 15 -18 28 -28 16 -13 22 -26 19 -43 -3
-14 -1 -22 5 -19 5 4 7 12 3 18 -3 7 6 -1 20 -16 15 -16 23 -33 20 -39 -4 -7
-2 -8 4 -4 12 7 35 -27 25 -38 -3 -3 2 -6 11 -6 12 0 16 -5 12 -16 -3 -8 -2
-12 3 -9 12 7 42 -35 34 -48 -3 -6 -1 -7 4 -4 17 11 84 -83 77 -107 -4 -16 -3
-18 5 -6 5 8 12 12 14 10 2 -3 18 -24 35 -47 18 -22 31 -47 29 -55 -2 -7 -2
-10 0 -5 8 14 25 7 19 -8 -3 -8 0 -14 6 -12 6 1 13 -4 16 -12 3 -9 0 -11 -8
-6 -9 5 -11 4 -6 -4 4 -6 11 -9 16 -6 4 3 17 -7 28 -22 l20 -27 40 18 c22 10
46 15 53 11 8 -5 10 -4 5 3 -7 11 8 16 42 15 7 -1 11 1 8 5 -3 3 6 11 21 19
14 7 28 11 31 9 2 -3 11 1 18 9 8 7 24 12 37 10 12 -2 49 -6 82 -10 33 -4 63
-12 67 -19 5 -7 8 -7 8 0 0 6 12 9 29 6 27 -4 33 3 100 103 39 58 71 107 71
109 0 2 -35 33 -77 69 -72 61 -94 80 -163 140 -14 12 -88 76 -165 142 -77 66
-142 122 -145 125 -3 3 -104 91 -225 195 -121 104 -225 194 -231 200 -6 5 -37
33 -70 60 -32 28 -74 64 -94 81 -42 38 -485 420 -519 449 -13 11 -31 27 -40
36 -9 8 -43 37 -76 65 -33 27 -62 52 -65 55 -3 3 -59 52 -125 109 -120 102
-228 196 -249 215 -6 6 -58 50 -116 100 -58 49 -107 92 -110 95 -3 3 -14 12
-25 20 -17 13 -17 11 3 -14z"/>
<path d="M5350 5659 c-85 -48 -173 -98 -195 -110 -22 -12 -62 -34 -90 -49 -27
-15 -79 -44 -115 -64 -36 -20 -72 -40 -80 -45 -8 -6 -37 -22 -65 -37 -50 -27
-399 -221 -770 -428 -110 -62 -293 -164 -406 -226 l-207 -115 27 -17 c14 -10
41 -28 58 -39 18 -12 30 -25 27 -30 -3 -5 -2 -9 3 -8 17 3 32 -1 45 -13 7 -7
59 -44 116 -82 56 -38 102 -73 102 -79 0 -6 3 -8 6 -4 3 3 48 -24 100 -59 55
-39 91 -58 87 -48 -5 13 -3 16 10 11 12 -4 14 -2 10 10 -5 13 -2 15 11 10 10
-4 15 -3 11 3 -9 15 31 54 46 45 8 -5 10 -4 5 3 -7 12 131 159 145 154 5 -1 8
1 7 5 -4 13 45 63 55 56 6 -3 7 -2 4 4 -8 13 37 56 48 46 4 -5 5 -3 2 3 -8 14
17 37 28 26 5 -4 5 -2 2 4 -8 14 17 37 28 26 5 -4 5 -2 2 4 -8 14 26 47 38 37
4 -5 5 -3 2 3 -3 6 9 25 27 43 24 24 35 29 40 19 3 -7 4 -4 3 7 -1 12 3 19 11
17 8 -1 11 1 8 6 -6 11 57 74 67 67 4 -3 5 -2 2 2 -8 10 67 83 78 76 6 -3 7
-2 4 4 -7 11 56 76 66 68 4 -3 5 -2 2 2 -3 4 7 19 22 35 22 23 29 26 42 15 14
-10 14 -10 4 4 -11 13 -7 21 20 47 18 18 37 29 41 25 4 -5 6 -2 4 4 -2 7 24
40 56 73 50 50 62 57 75 47 14 -11 14 -10 2 6 -12 15 -9 21 11 18 4 0 5 6 2
14 -6 14 6 20 29 16 5 -1 6 3 3 8 -9 13 43 63 56 55 6 -4 8 -3 5 3 -8 13 17
36 28 25 5 -4 5 -1 1 6 -9 15 31 55 45 46 5 -3 6 2 3 11 -5 12 -2 16 12 13 11
-2 18 2 17 9 -3 14 189 213 206 213 6 0 10 6 9 13 -2 6 3 11 10 9 8 -1 11 2 8
7 -4 5 2 16 12 23 16 11 39 40 30 37 -2 -1 -73 -41 -158 -90z"/>
<path d="M4930 5059 c-349 -352 -690 -696 -757 -764 -68 -67 -123 -127 -123
-132 0 -4 18 -19 40 -33 22 -14 40 -28 40 -31 0 -4 8 -9 18 -12 30 -10 187
-126 187 -139 0 -6 9 -12 21 -13 26 -2 145 -85 139 -96 -3 -4 0 -11 6 -15 8
-5 9 -3 4 6 -5 8 -3 11 6 8 8 -3 13 -10 12 -16 -1 -5 5 -9 15 -8 9 0 17 -4 17
-11 0 -6 4 -15 9 -20 5 -5 6 -2 1 6 -6 11 -3 13 14 8 13 -3 21 -3 18 0 -5 5
45 53 55 53 3 0 29 22 58 49 42 38 57 47 67 39 10 -8 12 -7 8 4 -6 15 147 151
171 151 7 0 11 4 9 8 -3 4 12 21 33 38 32 25 44 44 63 105 13 41 27 72 30 70
4 -2 5 6 1 18 -3 12 -1 19 4 15 6 -3 11 4 11 16 2 31 34 121 47 129 6 4 8 8 4
8 -7 0 6 43 33 105 7 17 11 36 10 43 -1 6 3 12 9 12 6 0 9 4 6 9 -8 12 4 42
14 36 5 -3 6 4 3 15 -3 11 -1 20 4 20 5 0 10 7 10 15 0 21 25 95 32 95 3 0 7
12 8 27 0 15 6 29 12 31 6 2 9 8 6 13 -4 5 3 29 13 53 11 24 23 58 27 75 4 19
11 28 17 25 7 -4 8 -2 4 4 -4 6 7 51 24 99 18 49 36 103 41 121 6 18 13 31 17
28 4 -2 7 8 8 22 1 25 44 157 63 192 5 9 12 30 16 48 3 18 10 32 14 32 4 0 8
6 8 13 0 6 4 24 8 40 4 15 6 27 4 27 -2 -1 -290 -289 -639 -641z"/>
<path d="M4915 5121 c-3 -5 -2 -12 3 -15 5 -3 9 1 9 9 0 17 -3 19 -12 6z"/>
<path d="M3246 4587 c-19 -14 -19 -15 2 -37 23 -25 27 -36 15 -43 -5 -2 -3 -3
3 -1 6 1 39 -38 73 -87 34 -49 58 -89 54 -89 -4 0 0 -6 9 -12 28 -22 169 -238
163 -248 -4 -6 -2 -9 3 -8 13 4 83 -93 76 -104 -3 -4 -1 -8 5 -8 5 0 24 -20
41 -45 17 -25 29 -45 26 -45 -3 0 6 -12 19 -26 14 -15 22 -30 19 -35 -3 -5 -1
-9 4 -9 16 0 64 -78 56 -91 -4 -7 -3 -10 4 -5 10 6 76 -78 78 -99 0 -5 14 -25
32 -44 32 -33 43 -58 20 -45 -8 4 -10 3 -5 -2 5 -5 12 -9 17 -9 9 0 70 -82 96
-129 9 -16 25 -38 35 -49 21 -23 26 -42 7 -31 -7 4 -8 3 -4 -5 4 -6 11 -9 16
-6 12 7 31 -30 22 -41 -4 -5 -3 -6 2 -2 12 10 39 -29 30 -44 -4 -6 -3 -8 3 -5
11 7 46 -38 46 -59 0 -15 23 -7 63 23 17 12 34 20 37 16 4 -3 7 -2 7 4 0 5 20
24 44 41 45 32 62 40 51 23 -3 -5 -1 -12 4 -16 6 -3 8 3 6 14 -5 26 37 55 54
38 9 -9 11 -8 6 5 -5 11 4 24 31 42 21 14 42 22 48 19 6 -3 8 -3 4 2 -11 11
40 48 54 39 7 -4 10 -4 6 1 -4 4 0 13 9 20 15 11 15 16 0 71 -9 33 -21 82 -27
109 -16 80 -20 93 -30 120 -5 14 -13 25 -17 25 -5 0 -19 10 -33 23 -14 12 -37
28 -52 36 -15 8 -36 21 -46 30 -10 9 -25 21 -34 26 -19 12 -139 93 -316 215
-68 47 -131 90 -140 95 -9 6 -19 12 -22 15 -3 4 -36 27 -75 53 -38 25 -128 87
-200 136 -230 159 -352 240 -366 246 -8 3 -23 -1 -33 -8z"/>
<path d="M3170 4525 c0 -5 4 -26 9 -45 6 -19 12 -48 15 -65 2 -16 9 -55 16
-85 17 -87 22 -113 26 -140 1 -14 8 -45 14 -70 12 -49 22 -110 24 -152 0 -14
4 -25 7 -23 9 6 32 -142 24 -156 -6 -8 -4 -10 5 -4 10 6 12 1 8 -18 -3 -15 -2
-25 2 -22 8 5 32 -134 25 -146 -4 -5 -1 -9 6 -9 7 0 9 -10 7 -25 -3 -14 -1
-28 3 -31 5 -3 9 -14 9 -25 0 -10 5 -19 11 -19 5 0 8 -3 6 -7 -3 -5 6 -9 19
-9 36 -3 174 -47 174 -57 0 -4 4 -6 9 -3 5 3 37 -3 71 -14 33 -11 79 -24 101
-30 22 -6 37 -15 34 -20 -3 -5 0 -12 6 -16 8 -4 9 -3 5 4 -5 8 1 12 14 12 12
0 19 -4 16 -9 -4 -5 3 -7 14 -4 16 4 19 2 14 -13 -4 -14 -3 -16 4 -5 8 11 21
10 77 -8 37 -12 69 -20 72 -18 2 3 -24 46 -59 96 -134 193 -223 324 -227 335
-2 6 -7 13 -11 16 -3 3 -54 75 -111 160 -58 85 -125 184 -150 220 -25 36 -91
133 -148 215 -115 170 -140 204 -141 190z"/>
<path d="M3047 4430 c-233 -343 -459 -694 -449 -698 7 -2 9 -9 6 -14 -4 -6 -2
-8 3 -5 14 9 74 -3 68 -13 -3 -5 4 -6 15 -3 11 3 20 0 20 -6 0 -5 7 -8 15 -5
8 4 15 1 15 -5 0 -6 6 -8 13 -6 13 6 120 -29 113 -36 -2 -2 12 -5 31 -6 20 -1
39 -7 43 -13 4 -7 11 -11 16 -10 17 4 114 -23 114 -32 0 -4 3 -7 8 -6 14 5
121 -25 117 -32 -3 -4 1 -8 8 -7 33 1 58 -4 54 -10 -3 -5 6 -9 19 -9 19 -2 23
2 19 20 -3 11 -7 32 -9 46 -3 14 -9 49 -15 79 -6 29 -8 57 -5 62 3 5 0 9 -5 9
-6 0 -11 9 -11 19 0 10 -9 63 -20 117 -10 55 -21 111 -24 126 -2 15 -12 63
-20 105 -9 43 -18 89 -20 103 -3 14 -10 50 -16 80 -6 30 -14 69 -17 85 -2 17
-10 57 -17 90 l-12 60 -57 -85z"/>
<path d="M5913 4158 c1 -7 4 -15 7 -18 7 -6 55 -160 55 -175 0 -5 3 -12 6 -15
5 -5 41 -115 40 -124 0 -3 13 -19 29 -36 16 -17 28 -37 27 -43 -1 -6 5 -11 13
-12 8 -1 14 -6 12 -13 -1 -7 2 -11 7 -10 4 2 25 -15 44 -36 31 -33 35 -42 24
-55 -10 -14 -10 -14 5 -3 15 12 22 8 55 -29 21 -23 36 -47 35 -53 -2 -6 0 -8
4 -4 10 11 35 -12 27 -25 -3 -5 -1 -7 4 -4 11 7 140 -132 135 -146 -1 -5 2 -6
6 -3 12 7 44 -28 35 -39 -5 -4 -3 -5 3 -2 6 3 27 -12 47 -34 37 -40 47 -56 25
-43 -7 4 -8 3 -4 -5 4 -6 12 -9 17 -5 13 8 60 -46 52 -59 -3 -6 -2 -7 4 -4 11
7 76 -56 68 -66 -3 -4 -2 -5 2 -2 8 6 134 -126 128 -135 -2 -4 2 -7 10 -7 14
0 -6 42 -110 232 -12 22 -66 121 -120 220 -54 99 -111 205 -128 235 -16 30
-48 89 -70 130 -22 41 -56 104 -76 140 -20 36 -48 86 -61 113 -18 34 -33 50
-55 56 -16 5 -88 27 -160 50 -144 46 -146 46 -142 29z"/>
<path d="M5760 4096 c-41 -29 -318 -222 -615 -429 -297 -207 -549 -383 -560
-391 -39 -29 -244 -171 -261 -182 -14 -8 -17 -24 -16 -90 3 -132 13 -426 17
-474 2 -25 -2 -51 -8 -59 -9 -11 -9 -13 -1 -8 9 5 12 -22 14 -96 1 -92 6 -177
9 -185 0 -1 24 20 52 47 29 28 56 48 62 44 6 -3 7 -1 3 6 -8 12 18 44 28 34 3
-4 6 -1 6 6 0 16 46 62 54 54 3 -4 6 -1 6 6 0 17 28 44 39 37 5 -3 8 2 7 11 0
9 5 18 13 21 9 3 11 0 6 -9 -5 -8 -4 -10 0 -6 5 4 10 14 11 21 2 16 35 56 47
56 4 0 5 -5 1 -12 -4 -7 -3 -8 5 -4 6 4 9 11 6 16 -6 10 49 70 65 70 5 0 9 4
8 9 -4 12 43 52 53 46 4 -3 11 0 15 6 4 8 3 9 -4 5 -22 -14 -12 7 17 35 16 15
32 25 35 22 3 -4 6 -1 6 6 0 15 445 461 459 461 6 0 10 3 9 8 -4 12 44 62 54
56 5 -3 7 0 6 8 -2 7 3 12 9 11 7 -2 12 2 10 9 -1 6 8 17 21 23 13 7 22 16 21
21 -1 5 8 14 20 20 12 6 22 14 22 18 -2 13 43 55 52 49 6 -3 7 -1 4 4 -8 13
27 46 38 36 4 -5 5 -3 2 3 -7 12 185 208 196 199 4 -3 5 -2 2 2 -8 11 127 143
139 136 6 -3 8 -3 4 2 -4 4 -4 13 1 19 6 7 4 27 -5 51 -7 22 -12 46 -9 53 2 6
1 12 -4 12 -7 0 -45 110 -46 135 0 6 -2 12 -5 15 -4 3 -12 24 -18 48 -7 23
-16 42 -20 42 -4 -1 -41 -25 -82 -54z"/>
<path d="M5890 3720 c0 -5 5 -10 11 -10 5 0 7 5 4 10 -3 6 -8 10 -11 10 -2 0
-4 -4 -4 -10z"/>
<path d="M2280 3708 c-14 -6 -34 -14 -45 -19 -11 -4 -52 -21 -91 -38 -90 -37
-358 -233 -372 -272 -6 -14 -53 -131 -105 -260 -53 -129 -136 -335 -186 -459
-51 -124 -95 -234 -100 -245 -5 -11 -19 -45 -31 -75 -12 -30 -28 -68 -35 -85
-7 -16 -45 -111 -85 -210 -39 -99 -75 -189 -80 -200 -20 -45 -64 -155 -175
-430 -127 -316 -142 -351 -156 -378 -23 -43 21 -3 225 203 119 122 221 218
226 215 5 -3 7 1 4 9 -3 9 3 19 18 27 13 7 24 11 26 10 2 -2 7 1 10 5 4 4 1 4
-5 0 -18 -10 -16 0 4 24 19 21 39 28 27 8 -5 -7 -3 -8 5 -4 7 5 10 10 7 13
-10 10 14 43 31 43 9 0 13 3 10 6 -8 8 217 234 233 234 6 0 9 4 6 9 -7 10 28
43 37 36 4 -3 5 -2 2 2 -8 10 157 173 168 166 6 -3 7 -2 4 4 -8 13 187 206
198 196 4 -4 5 -3 1 4 -6 11 10 28 27 28 4 0 7 4 6 8 -2 15 54 67 64 60 6 -3
7 -2 4 4 -7 11 36 56 46 48 4 -3 5 -2 2 2 -7 9 16 34 26 27 5 -3 8 0 7 8 -2 7
3 12 10 10 8 -1 11 1 8 6 -3 5 6 21 20 36 22 23 28 25 42 14 15 -11 15 -11 4
3 -10 14 -7 21 19 47 18 17 37 29 42 25 6 -3 7 -1 3 6 -5 7 1 20 15 32 18 15
25 17 38 6 14 -10 14 -10 4 4 -11 14 5 34 112 143 77 79 129 125 136 120 8 -4
9 -3 5 5 -8 13 210 238 226 233 5 -1 7 2 4 7 -7 11 19 33 28 23 4 -4 6 0 4 8
-2 8 2 14 9 15 6 0 15 4 20 9 5 5 2 6 -7 1 -8 -4 -1 7 17 24 18 17 37 31 44
31 7 0 9 3 6 7 -4 3 19 32 50 64 41 42 60 55 66 46 6 -9 7 -8 4 3 -3 8 13 33
34 55 l39 41 -82 26 c-46 15 -155 49 -243 77 -462 144 -430 135 -539 147 -34
3 -63 7 -66 9 -3 1 -16 -2 -30 -7z"/>
<path d="M3130 3546 c0 -2 7 -7 16 -10 8 -3 12 -2 9 4 -6 10 -25 14 -25 6z"/>
<path d="M3033 3148 c-328 -330 -1530 -1541 -1854 -1868 -122 -124 -226 -224
-231 -222 -5 1 -7 -2 -4 -7 4 -5 0 -13 -7 -18 -7 -4 -31 -28 -53 -52 -28 -32
-33 -41 -16 -32 12 6 28 9 34 5 6 -4 8 -3 5 3 -7 12 49 46 63 38 6 -3 10 -1
10 5 0 15 68 43 82 34 7 -4 8 -3 4 4 -4 7 16 23 53 41 42 22 61 27 64 18 3 -7
6 -5 6 5 1 15 35 35 54 30 4 -1 7 2 7 7 0 13 60 42 71 35 5 -3 9 -1 9 5 0 8
151 91 166 91 3 0 2 -5 -2 -12 -4 -7 -3 -8 5 -4 6 4 9 12 6 17 -6 8 2 11 21 8
4 0 10 3 13 8 3 5 39 26 80 47 59 31 75 36 83 25 8 -11 9 -10 4 3 -4 13 5 23
35 38 22 12 45 18 51 14 7 -4 8 -3 4 4 -5 8 0 12 13 12 12 0 21 4 21 8 0 13
50 33 62 26 6 -4 8 -2 5 3 -8 13 20 26 36 16 7 -3 9 -2 4 2 -9 10 71 57 84 49
5 -3 9 0 9 5 0 15 212 119 229 113 8 -3 11 0 7 6 -8 13 81 55 98 45 6 -3 8 -2
3 2 -9 11 72 57 86 48 6 -4 7 -1 2 7 -6 10 -4 12 9 7 9 -4 15 -3 12 2 -7 11
53 33 67 24 5 -3 7 -1 4 4 -4 7 22 26 63 47 39 20 70 34 70 31 0 -4 7 1 16 10
10 9 24 13 38 10 14 -4 17 -3 8 3 -10 7 11 21 74 53 109 55 109 54 99 39 -5
-9 -4 -11 4 -6 6 4 9 11 6 16 -4 7 47 34 60 31 3 -1 13 5 21 14 13 12 19 13
30 4 11 -9 13 -9 9 2 -4 10 16 25 61 49 55 28 67 32 75 19 8 -11 9 -10 7 6 -2
14 2 20 14 19 10 -1 16 1 13 5 -6 11 82 51 99 45 8 -3 17 -1 21 5 4 7 -1 9
-12 5 -10 -3 -6 2 10 11 15 9 33 13 39 9 6 -4 8 -3 5 3 -8 13 20 26 35 16 7
-3 8 -1 4 5 -6 11 0 14 20 11 4 0 10 3 13 9 3 5 38 26 78 47 64 34 74 37 90
24 16 -13 17 -12 4 4 -12 15 -9 19 35 39 27 12 52 21 57 20 4 -1 7 2 7 7 0 5
8 12 18 15 12 4 26 31 41 79 12 39 25 79 28 87 4 8 7 17 8 20 1 3 6 20 10 37
4 19 12 30 18 26 5 -3 7 -1 3 5 -8 13 15 103 25 96 4 -2 5 6 1 18 -4 16 -2 19
8 13 9 -5 11 -4 6 4 -4 6 6 53 22 104 83 260 94 299 86 306 -5 5 -56 23 -114
41 -58 17 -127 39 -155 48 -27 8 -52 15 -55 15 -3 -1 -21 5 -40 12 -19 8 -82
28 -140 45 -58 17 -115 36 -128 41 -13 5 -28 9 -35 9 -7 0 -139 -127 -294
-282z"/>
<path d="M3896 3302 c-3 -5 1 -9 9 -9 8 0 12 4 9 9 -3 4 -7 8 -9 8 -2 0 -6 -4
-9 -8z"/>
<path d="M4054 3146 c-10 -36 -23 -62 -28 -59 -5 3 -6 1 -2 -5 6 -10 -21 -112
-44 -167 -9 -23 -96 -300 -112 -358 -11 -38 -10 -39 36 -81 39 -34 45 -44 34
-56 -11 -12 -11 -12 4 -1 14 11 20 11 32 -1 7 -7 31 -27 53 -45 61 -49 89 -75
74 -67 -9 5 -12 3 -7 -5 4 -6 11 -9 15 -7 13 8 52 -25 45 -37 -4 -7 -4 -9 1
-5 11 11 36 -12 28 -25 -3 -5 -2 -7 4 -4 12 8 48 -17 48 -32 0 -6 3 -11 8 -11
4 0 11 0 15 0 8 0 6 191 -2 283 -3 32 -1 47 7 47 7 0 6 4 -2 9 -12 8 -12 12
-2 24 8 10 9 17 2 22 -6 3 -10 16 -9 28 0 12 -2 103 -6 202 l-6 180 -78 117
c-42 64 -80 117 -83 117 -4 1 -15 -28 -25 -63z"/>
<path d="M2796 2993 c-6 -14 -5 -15 5 -6 7 7 10 15 7 18 -3 3 -9 -2 -12 -12z"/>
<path d="M5075 2900 c3 -5 8 -10 11 -10 2 0 4 5 4 10 0 6 -5 10 -11 10 -5 0
-7 -4 -4 -10z"/>
<path d="M4970 2800 c0 -5 5 -10 11 -10 5 0 7 5 4 10 -3 6 -8 10 -11 10 -2 0
-4 -4 -4 -10z"/>
<path d="M4356 2173 c-6 -14 -5 -15 5 -6 7 7 10 15 7 18 -3 3 -9 -2 -12 -12z"/>
<path d="M1715 1900 c3 -5 8 -10 11 -10 2 0 4 5 4 10 0 6 -5 10 -11 10 -5 0
-7 -4 -4 -10z"/>
<path d="M2610 1821 c0 -6 4 -13 10 -16 6 -3 7 1 4 9 -7 18 -14 21 -14 7z"/>
<path d="M1490 1680 c0 -5 5 -10 11 -10 5 0 7 5 4 10 -3 6 -8 10 -11 10 -2 0
-4 -4 -4 -10z"/>
<path d="M2295 1660 c3 -5 8 -10 11 -10 2 0 4 5 4 10 0 6 -5 10 -11 10 -5 0
-7 -4 -4 -10z"/>
<path d="M1196 1373 c-6 -14 -5 -15 5 -6 7 7 10 15 7 18 -3 3 -9 -2 -12 -12z"/>
<path d="M1626 1322 c-3 -5 1 -9 9 -9 8 0 12 4 9 9 -3 4 -7 8 -9 8 -2 0 -6 -4
-9 -8z"/>
</g>
</svg>
