<?xml version="1.0" standalone="no"?>
<!DOCTYPE svg PUBLIC "-//W3C//DTD SVG 20010904//EN"
 "http://www.w3.org/TR/2001/REC-SVG-20010904/DTD/svg10.dtd">
<svg version="1.0" xmlns="http://www.w3.org/2000/svg"
 width="2000.000000pt" height="2000.000000pt" viewBox="0 0 2000.000000 2000.000000"
 preserveAspectRatio="xMidYMid meet">
<metadata>
Created by potrace 1.14, written by Peter Selinger 2001-2017
</metadata>
<g transform="translate(0.000000,2000.000000) scale(0.100000,-0.100000)"
fill="#000000" stroke="none">
<path d="M31 17665 c9 -11 1282 -1642 2829 -3625 1547 -1983 2814 -3607 2816
-3608 1 -2 165 62 364 142 l361 147 317 -41 c174 -23 326 -42 336 -43 14 -2
70 73 232 313 l213 315 -32 31 c-18 17 -966 832 -2107 1810 -1141 978 -2802
2401 -3690 3163 -888 761 -1624 1391 -1635 1400 -19 15 -19 15 -4 -4z"/>
<path d="M15870 16441 c-177 -98 -4744 -2621 -5410 -2989 -344 -189 -638 -352
-653 -362 l-28 -17 820 -559 c451 -307 824 -560 828 -561 5 -2 1032 1021 2283
2272 1251 1251 2273 2275 2270 2275 -3 0 -52 -27 -110 -59z"/>
<path d="M13892 14097 l-2274 -2274 796 -542 c565 -385 800 -540 809 -533 6 5
310 253 673 550 l662 541 20 58 c11 32 349 983 752 2113 797 2237 841 2360
837 2360 -1 0 -1025 -1023 -2275 -2273z"/>
<path d="M9267 13090 c-32 -15 -61 -30 -63 -33 -4 -4 2963 -4322 2969 -4322 2
0 280 191 617 425 337 234 617 428 622 431 7 5 -195 869 -208 891 -6 10 -10
12 -1829 1248 -852 580 -1658 1128 -1790 1218 -132 90 -244 166 -250 167 -5 2
-36 -9 -68 -25z"/>
<path d="M9024 12915 c5 -20 606 -3069 606 -3078 0 -2 12 -7 28 -10 15 -4 445
-134 957 -291 511 -157 931 -283 933 -281 4 3 -2501 3651 -2520 3670 -7 7 -8
4 -4 -10z"/>
<path d="M8047 11711 l-767 -1150 103 -32 c699 -216 2012 -618 2013 -616 2 2
-571 2916 -577 2936 -3 7 -350 -505 -772 -1138z"/>
<path d="M17190 11844 c0 -9 320 -996 327 -1008 56 -94 314 -371 1304 -1402
628 -654 1146 -1193 1151 -1199 6 -5 1 8 -10 30 -22 44 -1792 3278 -1797 3283
-3 4 -964 302 -971 302 -2 0 -4 -3 -4 -6z"/>
<path d="M16915 11756 c-33 -23 -1057 -732 -2275 -1576 -1218 -843 -2220
-1538 -2227 -1544 -9 -8 -2 -310 32 -1326 25 -723 46 -1321 47 -1328 2 -8
1087 1065 2411 2383 2064 2055 2407 2400 2401 2419 -78 252 -318 1003 -323
1008 -3 4 -33 -12 -66 -36z"/>
<path d="M6088 10365 l-326 -133 -434 -319 -434 -318 -432 -1055 c-237 -580
-884 -2162 -1437 -3515 -554 -1353 -1011 -2471 -1016 -2485 -6 -14 1615 1599
3600 3585 1986 1985 3607 3612 3603 3616 -4 3 -505 159 -1115 348 l-1107 342
-268 34 c-147 19 -276 35 -287 34 -11 0 -167 -61 -347 -134z"/>
<path d="M5775 5989 l-3680 -3681 145 75 c80 41 537 274 1015 517 479 243 965
491 1080 550 116 59 1459 743 2985 1521 1526 777 2926 1489 3110 1583 l335
171 362 1145 c199 630 362 1152 362 1160 1 11 -251 92 -1007 324 -554 170
-1011 310 -1017 312 -5 2 -1666 -1652 -3690 -3677z"/>
<path d="M11387 7997 l-326 -1022 27 -26 c44 -43 1183 -981 1186 -977 2 1 -15
532 -37 1178 l-41 1175 -239 345 c-132 190 -240 346 -241 347 -1 2 -149 -457
-329 -1020z"/>
</g>
</svg>
